<?xml version="1.0" encoding="utf-8"?>
<!-- Generator: Adobe Illustrator 23.0.3, SVG Export Plug-In . SVG Version: 6.00 Build 0)  -->
<svg version="1.1" xmlns="http://www.w3.org/2000/svg" xmlns:xlink="http://www.w3.org/1999/xlink" x="0px" y="0px"
	 viewBox="0 0 500 500" style="enable-background:new 0 0 500 500;" xml:space="preserve">
<style type="text/css">
	.st0{opacity:0.5;}
	.st1{fill:#FFFFFF;}
	.st2{opacity:0.2;}
</style>
<g id="BACKGROUND">
</g>
<g id="OBJECTS">
	<g>
		<path class="st0" d="M410.41,217.45c-4.31-13.88-10.58-27.13-18.52-39.26c-7.94-12.13-17.53-23.14-28.4-32.66
			c-21.75-19.05-48.79-31.91-77.15-36.62c-14.18-2.35-28.62-2.8-42.85-1.26c-14.23,1.53-28.22,5.07-41.41,10.44
			c-26.43,10.68-49.58,28.8-66.3,51.47c-8.39,11.31-15.2,23.75-20.14,36.86c-2.49,6.54-4.49,13.26-6.04,20.06
			c-1.52,6.81-2.57,13.71-3.13,20.64c-1.13,13.85-0.37,27.8,2.28,41.33c2.7,13.52,7.2,26.62,13.47,38.76
			c-10.61-25.18-14.15-52.95-10.39-79.5c0.93-6.64,2.33-13.19,4.17-19.61c1.83-6.42,4.06-12.71,6.74-18.79
			c5.34-12.18,12.31-23.59,20.66-33.83c8.36-10.24,18.04-19.34,28.72-26.98c10.69-7.63,22.39-13.76,34.64-18.25
			c12.26-4.49,25.1-7.22,38.05-8.18c12.94-1,26.02-0.19,38.7,2.32c12.68,2.52,24.98,6.76,36.47,12.57
			c11.5,5.8,22.15,13.22,31.63,21.87c9.49,8.65,17.79,18.57,24.59,29.42c6.79,10.85,12.07,22.61,15.72,34.83
			c7.29,24.45,7.56,50.92,1.25,75.55c-6.34,24.64-19.61,47.38-37.82,65.08c-9.1,8.86-19.41,16.46-30.55,22.52
			c-11.16,6.03-23.11,10.59-35.48,13.43c-12.36,2.84-25.15,3.98-37.85,3.4c-12.7-0.54-25.3-2.82-37.38-6.75
			c-6.04-1.97-11.94-4.35-17.66-7.13c-2.86-1.38-5.67-2.89-8.43-4.46c-1.36-0.82-2.75-1.6-4.1-2.44l-3.88-2.49
			c-2.68-1.79-4.19-5.1-3.81-8.23c0.09-0.8,0.26-1.5,0.61-2.33l1.93-4.58l3.98-9.43l15.92-37.72l15.83-37.76l15.8-37.77l15.71-37.81
			l7.85-18.91l3.43-8.32c0.41-1,1.82-1.04,2.28-0.06l9.04,19.04c20.22,42.4,40.56,84.75,61.06,127.02
			c-2.38-2.09-4.81-4.12-7.28-6.09c-8.53-6.77-17.64-12.84-27.33-17.8c-4.85-2.48-9.85-4.66-14.97-6.49
			c-5.14-1.79-10.41-3.2-15.76-4.14c-10.69-1.88-25.61-3.21-36.41,0.84c0,0,53.55-4.2,110.21,55.02c1.19,1.25,3.23,4.22,6.6,3.2
			c2.81-0.85,2.88-5.12,2.04-7.09l-0.06-0.15c-21.5-50.2-43.25-100.29-65.14-150.32l-8.24-18.75l-4.12-9.37l-0.52-1.17l-0.16-0.36
			c-0.14-0.28-0.28-0.56-0.43-0.83c-0.3-0.52-0.65-1.03-1.04-1.52c-1.56-1.96-3.86-3.4-6.25-3.97c-2.39-0.59-4.91-0.42-7.23,0.52
			c-2.32,0.92-4.4,2.74-5.63,4.86c-0.16,0.26-0.31,0.54-0.45,0.83l-0.25,0.54l-0.26,0.58l-0.52,1.17l-1.05,2.34l-2.09,4.67
			l-4.18,9.34l-8.32,18.7l-16.63,37.41l-16.54,37.45l-16.51,37.46l-16.43,37.5l-4.11,9.37l-2.11,4.83c-1,2.31-1.74,4.92-2.07,7.51
			c-0.7,5.21,0.08,10.6,2.21,15.37c2.11,4.78,5.58,8.98,9.85,11.96l0.4,0.28l0.29,0.19l0.57,0.37l1.14,0.75l2.29,1.49
			c1.53,0.98,3.11,1.89,4.67,2.84c3.15,1.83,6.35,3.58,9.62,5.19c6.53,3.24,13.28,6.04,20.2,8.36c13.83,4.64,28.31,7.41,42.88,8.04
			c14.56,0.7,29.21-0.56,43.45-3.79c14.24-3.23,28.05-8.41,40.87-15.43c12.81-7.01,24.65-15.79,35.08-26.01
			c10.42-10.22,19.49-21.83,26.71-34.52c7.24-12.67,12.72-26.34,16.25-40.48C419.94,275.32,419.08,245.22,410.41,217.45z
			 M254.81,166.88c-0.02-0.03-0.03-0.06-0.05-0.09C254.75,166.76,254.78,166.81,254.81,166.88z"/>
		<g>
			<path class="st1" d="M402.48,203.53c-4.31-13.88-10.58-27.13-18.52-39.26c-7.94-12.13-17.53-23.14-28.4-32.66
				c-21.75-19.05-48.79-31.91-77.15-36.62c-14.18-2.35-28.62-2.8-42.85-1.26c-14.23,1.53-28.22,5.07-41.41,10.44
				c-26.43,10.68-49.58,28.8-66.3,51.47c-8.39,11.31-15.2,23.75-20.14,36.86c-2.49,6.54-4.49,13.26-6.04,20.06
				c-1.52,6.81-2.57,13.71-3.13,20.64c-1.13,13.85-0.37,27.8,2.28,41.33c2.7,13.52,7.2,26.62,13.47,38.76
				c-10.61-25.18-14.15-52.95-10.39-79.5c0.93-6.64,2.33-13.19,4.17-19.61c1.83-6.42,4.06-12.71,6.74-18.79
				c5.34-12.18,12.31-23.59,20.66-33.83c8.36-10.24,18.04-19.34,28.72-26.98c10.69-7.63,22.39-13.76,34.64-18.25
				c12.26-4.49,25.1-7.22,38.05-8.18c12.94-1,26.02-0.19,38.7,2.32c12.68,2.52,24.98,6.76,36.47,12.57
				c11.5,5.8,22.15,13.22,31.63,21.87c9.49,8.65,17.79,18.57,24.59,29.42c6.79,10.85,12.07,22.61,15.72,34.83
				c7.29,24.45,7.56,50.92,1.25,75.55c-6.34,24.64-19.61,47.38-37.82,65.08c-9.1,8.86-19.41,16.46-30.55,22.52
				c-11.16,6.03-23.11,10.59-35.48,13.43c-12.36,2.84-25.15,3.98-37.85,3.4c-12.7-0.54-25.3-2.82-37.38-6.75
				c-6.04-1.97-11.94-4.35-17.66-7.13c-2.86-1.38-5.67-2.89-8.43-4.46c-1.36-0.82-2.75-1.6-4.1-2.44l-3.88-2.49
				c-2.68-1.79-4.19-5.1-3.81-8.23c0.09-0.8,0.26-1.5,0.61-2.33l1.93-4.58l3.98-9.43l15.92-37.72l15.83-37.76l15.8-37.77
				l15.71-37.81l7.85-18.91l3.43-8.32c0.41-1,1.82-1.04,2.28-0.06l9.04,19.04c20.22,42.4,40.56,84.75,61.06,127.02
				c-2.38-2.09-4.81-4.12-7.28-6.09c-8.53-6.77-17.64-12.84-27.33-17.8c-4.85-2.48-9.85-4.66-14.97-6.49
				c-5.14-1.79-10.41-3.2-15.76-4.14c-10.69-1.88-25.61-3.21-36.41,0.84c0,0,53.55-4.2,110.21,55.02c1.19,1.25,3.23,4.22,6.6,3.2
				c2.81-0.85,2.88-5.12,2.04-7.09l-0.06-0.15c-21.5-50.2-43.25-100.29-65.14-150.32l-8.24-18.75l-4.12-9.37l-0.52-1.17l-0.16-0.36
				c-0.14-0.28-0.28-0.56-0.43-0.83c-0.3-0.52-0.65-1.03-1.04-1.52c-1.56-1.96-3.86-3.4-6.25-3.97c-2.39-0.59-4.91-0.42-7.23,0.52
				c-2.32,0.92-4.4,2.74-5.63,4.86c-0.16,0.26-0.31,0.54-0.45,0.83l-0.25,0.54l-0.26,0.58l-0.52,1.17l-1.05,2.34l-2.09,4.67
				l-4.18,9.34l-8.32,18.7l-16.63,37.41l-16.54,37.45l-16.51,37.46l-16.43,37.5l-4.11,9.37l-2.11,4.83c-1,2.31-1.74,4.92-2.07,7.51
				c-0.7,5.21,0.08,10.6,2.21,15.37c2.11,4.78,5.58,8.98,9.85,11.96l0.4,0.28l0.29,0.19l0.57,0.37l1.14,0.75l2.29,1.49
				c1.53,0.98,3.11,1.89,4.67,2.84c3.15,1.83,6.35,3.58,9.62,5.19c6.53,3.24,13.28,6.04,20.2,8.36c13.83,4.64,28.31,7.41,42.88,8.04
				c14.56,0.7,29.21-0.56,43.45-3.79c14.24-3.23,28.05-8.41,40.87-15.43c12.81-7.01,24.65-15.79,35.08-26.01
				c10.42-10.22,19.49-21.83,26.71-34.52c7.24-12.67,12.72-26.34,16.25-40.48C412.01,261.4,411.15,231.31,402.48,203.53z
				 M246.88,152.96c-0.02-0.03-0.03-0.06-0.05-0.09C246.82,152.84,246.85,152.9,246.88,152.96z"/>
			<path class="st2" d="M259.32,148.21c0.46,0.89,0.95,1.8,1.13,2.22l72.16,171.41c0.3,0.69,0.59,1.95,0.72,3.24
				c0.15,1.53-1.66,2.45-2.79,1.41c-8.75-8.06-20.62-19.11-36.11-30.6c-37.37-27.73-74.47-20.59-74.47-20.59
				s51.94-4.07,107.64,52.38c0,0,0,0,0,0c0.86,0.87,1.71,1.75,2.57,2.64c1.19,1.25,3.23,4.22,6.6,3.2c0.17-0.05,0.33-0.12,0.48-0.19
				c0.11-0.05,0.21-0.12,0.31-0.19c0.04-0.02,0.07-0.04,0.11-0.07c0.12-0.09,0.24-0.19,0.35-0.3c0,0,0.01-0.01,0.01-0.01
				c0.11-0.11,0.22-0.23,0.31-0.36c0,0,0,0,0,0l0,0c1.22-1.64,1.12-4.47,0.48-5.97l-0.06-0.15c-21.5-50.2-43.25-100.29-65.14-150.32
				l-8.24-18.75l-4.12-9.37l-0.52-1.17l-0.16-0.36c-0.14-0.28-0.28-0.56-0.43-0.83c-0.3-0.52-0.65-1.03-1.04-1.52
				c-1.56-1.96-3.86-3.4-6.25-3.97c-2.39-0.59-4.91-0.42-7.23,0.52c-2.32,0.92-4.4,2.74-5.63,4.86c-0.16,0.26-0.31,0.54-0.45,0.83
				l-0.25,0.54l-0.26,0.58l-0.52,1.17l-1.05,2.34l-2.09,4.67l-4.18,9.34l-8.32,18.7l-16.63,37.41l-16.54,37.45l-16.51,37.46
				l-16.43,37.5l-4.11,9.37l-2.11,4.83c-1,2.31-1.74,4.92-2.07,7.51c-0.7,5.21,0.08,10.6,2.21,15.37c2.11,4.78,5.58,8.98,9.85,11.96
				l0.4,0.28l0.29,0.19l0.57,0.37l1.14,0.75l2.29,1.49c1.53,0.98,3.11,1.89,4.67,2.84c3.15,1.83,6.35,3.58,9.62,5.19
				c6.53,3.24,13.28,6.04,20.2,8.36c13.83,4.64,28.31,7.41,42.88,8.04c14.56,0.7,29.21-0.56,43.45-3.79
				c14.24-3.23,28.05-8.41,40.87-15.43c12.81-7.01,24.65-15.79,35.08-26.01c10.42-10.22,19.49-21.83,26.71-34.52
				c7.24-12.67,12.72-26.34,16.25-40.48c7.06-28.29,6.2-58.39-2.47-86.17c-4.31-13.88-10.58-27.13-18.52-39.26
				c-7.94-12.13-17.53-23.14-28.4-32.66c-21.75-19.05-48.79-31.91-77.15-36.62c-14.18-2.35-28.62-2.8-42.85-1.26
				c-14.23,1.53-28.22,5.07-41.41,10.44c-26.43,10.68-49.58,28.8-66.3,51.47c-8.39,11.31-15.2,23.75-20.14,36.86
				c-2.49,6.54-4.49,13.26-6.04,20.06c-1.52,6.81-2.57,13.71-3.13,20.64c-1.13,13.85-0.37,27.8,2.28,41.33
				c2.7,13.52,7.2,26.62,13.47,38.76c0,0-29.4-64.08-2.69-120.01c5.75-12.04,12.19-24.34,20.19-35.12
				c15.94-21.6,38.99-38.86,64.18-49.04c12.57-5.11,25.9-8.49,39.46-9.94c13.56-1.46,28.32-1.04,41.83,1.2
				c27.02,4.49,51.79,17.74,72.51,35.89c10.36,9.07,19.5,19.57,27.06,31.12c7.56,11.56,13.54,24.18,17.65,37.41
				c8.26,26.47,9.08,55.14,2.35,82.1c-3.37,13.47-8.59,26.5-15.49,38.57c-6.87,12.09-15.52,23.16-25.45,32.89
				c-9.94,9.73-21.21,18.1-33.42,24.78c-12.21,6.69-25.37,11.62-38.94,14.7c-13.57,3.08-27.53,4.27-41.4,3.61
				c-13.88-0.6-27.69-3.23-40.86-7.66c-6.59-2.21-13.02-4.87-19.24-7.96c-3.11-1.54-6.16-3.2-9.16-4.95
				c-1.48-0.9-2.99-1.77-4.45-2.7l-2.18-1.42l-1.09-0.71l-0.54-0.36l-0.28-0.18l-0.38-0.27c-4.07-2.84-7.37-6.84-9.38-11.4
				c-1.16-2.6-1.29-4.72-1.06-6.99c0.34-3.38,1.29-6.67,2.63-9.79l84.83-199.14c0.92-2.15,3.25-5.07,5.46-5.94
				c2.21-0.9,3.86-0.73,5.49-0.43c0.24,0.05,0.51,0.12,0.79,0.21c2.18,0.69,3.59,1.85,4.69,3.26
				C257.89,145.68,258.7,147.02,259.32,148.21z"/>
		</g>
	</g>
</g>
</svg>
